<?xml version="1.0" standalone="no"?>
<!DOCTYPE svg PUBLIC "-//W3C//DTD SVG 20010904//EN"
 "http://www.w3.org/TR/2001/REC-SVG-20010904/DTD/svg10.dtd">
<svg version="1.0" xmlns="http://www.w3.org/2000/svg"
 width="754.000000pt" height="754.000000pt" viewBox="0 0 754.000000 754.000000"
 preserveAspectRatio="xMidYMid meet">
<metadata>
Created by potrace 1.14, written by Peter Selinger 2001-2017
</metadata>
<g transform="translate(0.000000,754.000000) scale(0.100000,-0.100000)"
fill="#000000" stroke="none">
<path d="M752 7450 c-135 -65 -250 -147 -363 -260 -210 -209 -326 -441 -378
-755 -12 -71 -10 -5236 2 -5275 4 -14 10 -41 13 -60 12 -78 68 -237 120 -338
134 -263 348 -470 615 -596 83 -39 236 -92 294 -101 11 -1 43 -7 70 -11 61
-11 5223 -12 5280 -2 22 4 56 10 75 14 19 3 60 13 90 22 30 9 57 16 60 17 12
2 118 45 145 59 17 8 41 20 55 26 32 14 50 25 140 85 72 48 255 220 295 278
11 16 32 45 47 64 31 40 115 203 146 283 25 66 60 202 70 273 9 70 9 5221 0
5272 -4 22 -10 56 -14 75 -13 82 -59 213 -114 325 -132 268 -328 462 -615 609
l-60 31 -2945 3 -2946 2 -82 -40z"/>
</g>
</svg>
